<svg xmlns="http://www.w3.org/2000/svg" xmlns:xlink="http://www.w3.org/1999/xlink" viewBox="0,0,256,256" width="48px" height="48px" fill-rule="nonzero"><g fill="none" fill-rule="nonzero" stroke="none" stroke-width="1" stroke-linecap="butt" stroke-linejoin="miter" stroke-miterlimit="10" stroke-dasharray="" stroke-dashoffset="0" font-family="none" font-weight="none" font-size="none" text-anchor="none" style="mix-blend-mode: normal"><g transform="scale(5.33333,5.33333)"><path d="M36.466,28.216c-0.225,0.225 -0.461,0.439 -0.709,0.653c-0.191,0.157 -0.394,0.315 -0.596,0.461c-0.225,0.169 -0.45,0.326 -0.686,0.472c-0.124,0.09 -0.27,0.169 -0.405,0.236c-0.18,0.112 -0.349,0.214 -0.54,0.304l-0.135,0.068c-0.522,0.261 -1.065,0.48 -1.622,0.655c-0.175,0.055 -0.353,0.109 -0.538,0.155c-0.315,0.09 -0.641,0.169 -0.979,0.225c-0.675,0.124 -1.361,0.18 -2.07,0.18h-3.943c-0.155,-0.099 -0.318,-0.205 -0.474,-0.305c-0.317,-0.699 -0.608,-1.348 -1.41,-2.26c-0.146,-0.18 -0.337,-0.382 -0.551,-0.596c-0.911,-0.911 -1.586,-1.339 -2.216,-1.665c-0.169,-0.09 -0.337,-0.169 -0.506,-0.248c-0.27,-0.135 -0.54,-0.259 -0.833,-0.428c-0.529,-0.304 -1.114,-0.731 -1.856,-1.474c-1.159,-1.159 -1.53,-1.935 -1.924,-2.711c-0.314,-0.674 -0.64,-1.338 -1.473,-2.26v-10.553c0,-0.621 0.504,-1.125 1.125,-1.125h2.914c0.36,0.495 0.563,0.934 0.788,1.361c0.36,0.788 0.731,1.541 1.89,2.7c1.159,1.159 1.935,1.53 2.722,1.913c0.765,0.371 1.541,0.754 2.689,1.901c1.159,1.159 1.53,1.935 1.924,2.711c0.36,0.788 0.731,1.541 1.89,2.7c1.159,1.159 1.935,1.53 2.722,1.913c0.765,0.371 1.541,0.754 2.689,1.901c1.159,1.159 1.53,1.935 1.924,2.711c0.054,0.135 0.122,0.27 0.189,0.405z" fill="#f2494c"></path><path d="M13,8v32h8c1.105,0 2,-0.895 2,-2v-6h6c0,0 11,-1 11,-11c0,-10 -6,-13 -11,-13z" fill="#db1a58"></path><path d="M16.51,40h-3.51v-2.34l0.034,0.034c1.159,1.159 1.935,1.53 2.722,1.912c0.248,0.113 0.495,0.236 0.754,0.394z" fill="#31c5c7"></path><path d="M39.832,23.05c-0.068,0.236 -0.351,5.743 -7.712,8.232c-0.472,-0.292 -1.874,-0.748 -2.515,-1.39c-1.159,-1.159 -1.541,-1.935 -1.924,-2.711c-0.236,-0.484 -0.472,-0.968 -0.889,-1.541c-0.259,-0.337 -0.585,-0.72 -1.013,-1.147c-0.844,-0.844 -1.485,-1.271 -2.07,-1.586c-0.214,-0.124 -0.427,-0.236 -0.641,-0.337c-0.157,-0.079 -0.315,-0.146 -0.472,-0.236c-0.63,-0.326 -1.305,-0.754 -2.216,-1.665c-1.159,-1.159 -1.541,-1.935 -1.924,-2.711c-0.371,-0.776 -0.754,-1.541 -1.901,-2.689c-1.159,-1.159 -1.935,-1.541 -2.711,-1.924c-0.281,-0.124 -0.551,-0.259 -0.844,-0.439v-4.906h10.62h0.001c1.202,1.219 1.996,1.611 2.789,2.001c0.776,0.371 1.53,0.742 2.689,1.901c1.159,1.159 1.541,1.924 1.913,2.7c0.383,0.776 0.754,1.541 1.913,2.7c1.159,1.159 1.946,1.541 2.723,1.924c0.765,0.382 1.541,0.754 2.678,1.901c0.628,0.632 1.214,1.462 1.506,1.923z" fill="#e4273e"></path><path d="M36.679,28.76c-2.732,2.337 -4.774,3.24 -7.679,3.24c-2.152,0 -4.775,-0.088 -4.854,-0.097c-0.317,-0.699 -0.984,-1.93 -1.786,-2.843c-0.146,-0.18 -0.337,-0.382 -0.551,-0.596c-0.911,-0.911 -1.586,-1.339 -2.216,-1.665c-0.169,-0.09 -0.337,-0.169 -0.506,-0.248c-0.27,-0.135 -0.54,-0.259 -0.833,-0.428c-0.529,-0.304 -0.495,-1.579 -1.238,-2.322c-1.159,-1.159 -1.808,-1.946 -2.202,-2.723c-0.314,-0.674 -0.981,-0.478 -1.814,-1.4v-11.678h4.039c0.36,0.495 0.563,0.934 0.788,1.361c0.36,0.788 0.731,1.541 1.89,2.7c1.159,1.159 1.935,1.53 2.722,1.913c0.765,0.371 1.541,0.754 2.689,1.901c1.159,1.159 1.53,1.935 1.924,2.711c0.36,0.788 0.731,1.541 1.89,2.7c1.159,1.159 1.935,1.53 2.722,1.913c0.765,0.371 1.541,0.754 2.689,1.901c1.159,1.159 1.53,1.935 1.924,2.711c0.054,0.135 0.335,0.814 0.402,0.949z" fill="#f2494c"></path><path d="M23,38v0c0,1.105 -0.895,2 -2,2h-0.125h-7.875v-11.869c0.056,0.045 -0.067,-0.199 0,-0.131c0.259,0.259 0.82,0.775 1,1c0,0 0,-0.011 0,0c0.653,0.776 0.811,1.415 1.104,2.022c0.382,0.765 0.754,1.553 1.913,2.7c1.159,1.159 1.946,1.541 2.723,1.924c0.765,0.371 1.53,0.743 2.678,1.89c0.257,0.259 0.402,0.25 0.582,0.464z" fill="#b11e93"></path><path d="M23,35.641v1.609v0.75c0,1.105 -0.895,2 -2,2v0c0,0 0.756,-1.756 -0.497,-3.009c-0.405,-0.394 -0.81,-0.686 -1.406,-1.046c-0.585,-0.36 -1.226,-0.821 -1.733,-1.327c-1.001,-1.013 -1.868,-2.115 -2.396,-3.431c-0.112,-0.281 -0.214,-0.551 -0.304,-0.821c-0.135,-0.349 -0.259,-0.675 -0.428,-1.001c-0.146,-0.283 -1.033,-1.106 -1.236,-1.365c0.517,0.416 1.146,0.599 1.585,1.128c0.428,0.517 0.776,1.136 1.125,1.665c0.045,0.068 0.079,0.124 0.135,0.18c0.675,0.945 1.609,1.71 2.565,2.329c0.045,0.023 0.079,0.056 0.124,0.068c0.472,0.292 0.945,0.495 1.496,0.686c0.596,0.191 1.361,0.517 2.002,0.923c0.349,0.212 0.664,0.437 0.968,0.662z" fill="#31c5c7"></path><path d="M40,21c-0.011,0.236 0,2.317 -0.635,3.942l-0.257,-0.387l-0.641,-0.833l-1.305,-1.597c-0.405,-0.506 -0.81,-0.934 -1.316,-1.294c-0.484,-0.382 -1.193,-0.742 -1.845,-1.271c-0.641,-0.506 -1.17,-1.091 -1.654,-1.688c-0.472,-0.596 -0.911,-1.249 -1.237,-1.958c-0.214,-0.472 -0.36,-0.934 -0.529,-1.373c-0.079,-0.225 -0.169,-0.45 -0.27,-0.664c-0.304,-0.63 -0.589,-1.237 -1.039,-1.8c0.563,0.45 0.983,0.956 1.444,1.553c0.371,0.484 0.675,1.013 0.99,1.485c0.079,0.112 0.146,0.214 0.225,0.315c0.754,0.956 1.789,1.811 2.824,2.385c0.101,0.056 0.191,0.101 0.281,0.146c0.563,0.281 1.215,0.45 1.98,0.788c0.765,0.337 1.496,0.821 2.126,1.316c0.315,0.261 0.858,0.935 0.858,0.935z" fill="#31c5c7"></path><path d="M37.687,27.752c-0.13,0.17 -1.285,1.309 -2.267,2.03l-0.31,-0.69c-0.23,-0.59 -0.38,-0.99 -0.67,-1.44c-0.26,-0.44 -0.63,-0.9 -0.99,-1.3c-0.38,-0.41 -0.75,-0.74 -1.23,-1.05c-0.47,-0.3 -1.11,-0.65 -1.63,-1.11c-0.52,-0.45 -0.95,-0.94 -1.35,-1.45c-0.4,-0.51 -0.77,-1.07 -1.03,-1.68c-0.14,-0.35 -0.26,-0.69 -0.38,-1.01c-0.09,-0.24 -0.306,-0.517 -0.426,-0.747c-0.27,-0.54 -0.427,-1.112 -0.817,-1.592c0.48,0.39 0.853,0.939 1.243,1.439c0.33,0.42 0.61,0.91 0.88,1.34c0.05,0.08 0.09,0.15 0.14,0.22c0.66,0.93 1.63,1.73 2.59,2.29c0.05,0.03 0.1,0.06 0.16,0.08c0.43,0.23 0.89,0.38 1.45,0.6c0.63,0.24 1.28,0.6 1.84,1.01c0.55,0.42 1.06,0.84 1.56,1.37c0.45,0.46 0.937,1.2 1.237,1.69z" fill="#31c5c7"></path><path d="M28.419,29.365c-1.02,-1.02 -1.7,-1.36 -2.39,-1.69c-0.69,-0.34 -0.845,-1.023 -1.875,-2.053c-1.02,-1.02 -1.726,-2.602 -2.056,-3.293c-0.34,-0.69 -0.416,-1.098 -1.446,-2.128c-1.02,-1.02 -1.7,-1.36 -2.39,-1.69c-0.69,-0.34 -1.611,-0.732 -2.641,-1.762c-1.02,-1.02 -1.562,-1.639 -1.892,-2.329c-0.2,-0.41 -0.379,-0.948 -0.729,-1.428v8.008c0.49,0.35 0.879,0.523 1.289,0.733c0.65,0.3 1.091,0.899 1.991,1.769l0.03,0.03c0.06,0.04 0.13,0.11 0.2,0.18c1.03,1.03 1.539,2.702 1.879,3.402c0.33,0.68 0.67,1.37 1.69,2.39c1.03,1.03 1.72,1.36 2.41,1.71c0.27,0.12 0.523,0.565 0.803,0.725c0,0 1.1,0.065 2.708,0.06c0.313,-0.001 1,0 1,0c0,0 2.166,0.049 2.999,-0.029c-0.28,-0.489 -0.89,-1.915 -1.58,-2.605z" fill="#e4273e"></path><path d="M27,32h-4l-0.01,0.157c-0.157,-0.112 -0.337,-0.225 -0.529,-0.337c-0.585,-0.36 -1.226,-0.821 -1.733,-1.327c-1.001,-1.013 -1.868,-2.115 -2.396,-3.431c-0.079,-0.191 -0.146,-0.382 -0.214,-0.563c-0.157,-0.439 -0.315,-0.855 -0.517,-1.26c-0.225,-0.428 -0.495,-0.844 -0.788,-1.237l-0.034,-0.034c-0.079,-0.124 -0.18,-0.236 -0.27,-0.36c0.517,0.416 1.001,0.866 1.44,1.395c0.428,0.517 0.776,1.136 1.125,1.665c0.112,0.18 0.248,0.349 0.382,0.506c0.653,0.799 1.474,1.451 2.318,2.002c0.146,0.09 0.304,0.18 0.45,0.259c0.371,0.191 0.754,0.349 1.17,0.495c0.596,0.191 1.361,0.517 2.002,0.923c0.564,0.348 1.744,1.21 1.604,1.147z" fill="#0288d1"></path><path d="M33.286,31.079c-0.753,0.551 -3.034,0.952 -3.296,0.921c-0.079,-0.135 -0.158,-0.27 -0.236,-0.394c-0.349,-0.574 -0.63,-0.956 -1.069,-1.451c-0.405,-0.472 -0.821,-0.855 -1.339,-1.204c-0.517,-0.337 -1.249,-0.754 -1.834,-1.271c-0.596,-0.517 -1.091,-1.08 -1.541,-1.654c-0.461,-0.585 -0.877,-1.237 -1.17,-1.924c-0.18,-0.416 -0.315,-0.821 -0.472,-1.215c-0.09,-0.248 -0.191,-0.495 -0.315,-0.731c-0.292,-0.619 -0.697,-1.193 -1.136,-1.744c0.551,0.439 1.069,0.934 1.519,1.496c0.405,0.495 0.72,1.069 1.046,1.553c0.045,0.068 0.09,0.135 0.135,0.202c0.776,1.035 1.868,1.924 2.948,2.531c0.011,0 0.011,0.011 0.022,0.011c0.551,0.304 1.103,0.472 1.834,0.754c0.731,0.281 1.474,0.72 2.104,1.181c0.619,0.428 1.271,1.091 1.733,1.665c0.324,0.384 0.785,0.869 1.067,1.274z" fill="#0288d1"></path><path d="M38.852,14.415c-0.96,-2.195 -2.23,-3.842 -4.295,-5.009c0.585,1.057 0.856,1.924 2.352,3.42c0.821,0.822 1.369,1.285 1.943,1.589z" fill="#b11e93"></path><path d="M16.364,40h-3.364v-2.474l0.032,0.036c1.11,1.225 1.854,1.617 2.609,2.022c0.238,0.119 0.475,0.249 0.723,0.416z" fill="#31c5c7"></path></g></g></svg>